<?xml version="1.0" standalone="no"?>
<!DOCTYPE svg PUBLIC "-//W3C//DTD SVG 20010904//EN"
 "http://www.w3.org/TR/2001/REC-SVG-20010904/DTD/svg10.dtd">
<svg version="1.0" xmlns="http://www.w3.org/2000/svg"
 width="1024.000000pt" height="1024.000000pt" viewBox="0 0 1024.000000 1024.000000"
 preserveAspectRatio="xMidYMid meet">

<g transform="translate(0.000000,1024.000000) scale(0.100000,-0.100000)"
fill="#000000" stroke="none">
<path d="M0 5120 l0 -5120 5120 0 5120 0 0 5120 0 5120 -5120 0 -5120 0 0
-5120z m5575 3406 c182 -59 402 -132 490 -161 88 -29 369 -121 625 -204 256
-84 627 -206 825 -271 198 -65 509 -167 690 -226 182 -58 342 -113 357 -120
64 -33 60 138 53 -2212 -6 -2356 0 -2167 -68 -2197 -18 -7 -160 -64 -317 -125
-157 -62 -409 -165 -560 -230 -151 -64 -327 -139 -390 -165 -63 -26 -171 -71
-240 -100 -69 -29 -215 -89 -325 -135 -110 -45 -308 -127 -440 -182 -132 -55
-310 -130 -395 -165 -152 -64 -231 -97 -540 -227 -227 -96 -219 -97 -542 45
-139 61 -322 142 -406 180 -84 38 -155 69 -157 69 -3 0 -76 31 -162 69 -87 38
-261 113 -388 166 -423 178 -559 237 -740 319 -171 78 -211 97 -400 179 -159
69 -463 197 -602 252 -105 42 -150 65 -168 87 l-25 30 0 2110 0 2111 24 32
c27 35 62 54 170 92 102 36 589 204 806 278 343 117 993 343 1210 420 118 42
339 119 490 170 151 52 356 124 455 160 252 91 239 92 670 -49z"/>
<path d="M5005 8573 c-71 -25 -175 -61 -230 -80 -214 -73 -276 -104 -265 -132
1 -2 -4 -8 -12 -13 -8 -5 2 -6 27 -2 22 4 38 4 35 1 -6 -6 -235 -98 -327 -131
-60 -21 -268 -95 -683 -243 -260 -93 -378 -134 -455 -159 -44 -15 -82 -30 -83
-35 -2 -5 -8 -7 -13 -3 -5 3 -9 0 -9 -6 0 -6 10 -14 23 -19 39 -16 62 -24 76
-27 8 -1 17 -7 20 -11 3 -5 26 -10 51 -12 25 -2 49 -5 53 -8 8 -5 48 30 47 42
0 3 1 5 3 4 1 0 15 6 31 15 26 13 46 12 71 -4 16 -10 85 -12 85 -2 0 5 13 9
29 9 15 0 43 10 60 22 28 20 41 23 94 19 41 -4 75 0 100 10 25 9 59 13 100 10
35 -3 84 1 112 8 78 21 268 27 308 11 18 -8 61 -14 95 -13 69 1 67 0 129 115
31 57 81 100 151 129 31 13 70 34 87 46 23 16 46 21 98 22 64 1 72 4 125 44
60 45 117 73 195 96 26 8 47 20 48 27 4 62 20 97 44 97 8 0 16 6 18 13 3 6 6
2 6 -10 1 -20 3 -21 26 -11 21 9 28 8 38 -5 12 -17 62 -13 51 4 -3 5 11 9 31
9 23 0 38 -6 41 -15 4 -9 14 -14 23 -13 11 2 16 -4 15 -24 -1 -32 0 -33 18
-14 10 10 20 10 38 3 14 -5 31 -11 37 -13 7 -1 20 -9 29 -18 8 -9 20 -16 25
-16 20 0 7 -20 -13 -21 -13 0 -17 -3 -10 -6 6 -2 12 -11 12 -19 0 -9 5 -12 10
-9 6 3 10 1 10 -4 0 -6 10 -11 23 -11 12 0 30 -7 40 -14 10 -8 27 -11 38 -9
12 4 25 0 30 -8 6 -11 11 -11 21 -1 18 18 27 15 38 -13 8 -21 16 -25 47 -25
25 0 48 -8 68 -24 17 -13 28 -26 25 -28 -14 -10 -87 -42 -99 -42 -17 -1 -23
-63 -8 -73 6 -4 52 -7 101 -8 79 -1 96 -5 131 -27 47 -30 110 -97 120 -128 6
-18 13 -21 43 -19 21 2 75 -2 122 -9 47 -6 103 -13 125 -16 93 -10 127 -23
171 -67 34 -34 44 -50 44 -76 0 -25 4 -33 18 -33 10 0 27 -7 38 -15 10 -8 36
-15 56 -15 24 0 47 -8 66 -25 17 -14 34 -25 39 -25 6 0 26 18 46 40 24 25 52
43 80 51 23 6 54 16 69 21 19 7 43 6 78 -2 36 -9 58 -9 81 -1 50 17 105 -5
170 -70 34 -34 58 -68 62 -87 3 -16 13 -37 22 -45 8 -9 15 -22 15 -30 0 -23
64 -45 76 -26 7 13 48 11 78 -2 13 -7 30 -25 37 -40 6 -16 16 -29 21 -29 6 0
68 18 139 41 103 32 133 38 144 29 8 -7 12 -16 9 -21 -3 -5 2 -9 11 -9 9 0 14
-4 10 -9 -6 -10 69 14 200 64 39 15 95 35 125 44 67 22 120 48 120 61 0 24
-33 36 -720 259 -135 44 -353 114 -485 156 -132 43 -277 90 -323 106 -46 16
-93 29 -105 29 -12 0 -33 6 -47 13 -61 32 -222 79 -248 72 l-27 -7 28 -15 c16
-8 35 -12 42 -9 7 2 24 -4 36 -15 12 -11 34 -22 48 -25 34 -7 59 -16 581 -193
245 -84 573 -195 730 -247 293 -97 320 -108 307 -120 -11 -12 -102 18 -1272
411 -1733 582 -1721 578 -1717 594 1 6 -2 11 -8 11 -6 0 -10 8 -11 18 0 10 -3
12 -6 5 -6 -15 -62 -17 -64 -3 -1 6 -2 20 -3 31 -1 24 -20 33 -81 42 -32 5
-66 -3 -170 -40z m180 -12 c7 -12 -12 -24 -25 -16 -11 7 -4 25 10 25 5 0 11
-4 15 -9z"/>
<path d="M6542 8136 c7 -8 15 -12 17 -11 5 6 -10 25 -20 25 -5 0 -4 -6 3 -14z"/>
<path d="M8477 7413 c-17 -4 -17 -35 -14 -566 2 -309 4 -566 4 -572 0 -5 -2
-244 -4 -530 -2 -286 -1 -566 2 -622 l7 -102 21 19 c11 11 18 23 14 26 -4 4
-2 13 4 21 6 7 9 22 6 33 -3 11 -1 22 3 25 5 3 6 21 3 40 -4 23 -2 35 6 35 6
0 11 7 11 15 0 8 -6 15 -12 15 -8 0 -9 3 -3 8 6 4 10 23 9 42 0 19 3 40 8 46
15 21 17 75 24 1082 l6 992 -38 -1 c-22 -1 -47 -3 -57 -6z"/>
<path d="M8295 7348 c-60 -22 -155 -55 -210 -74 -200 -70 -456 -167 -461 -175
-3 -5 2 -9 11 -9 8 0 24 -15 35 -32 12 -21 30 -35 47 -38 57 -10 35 -73 -45
-129 -27 -19 -39 -22 -70 -15 -71 15 -74 14 -67 -18 9 -37 -15 -61 -76 -79
-24 -7 -46 -14 -48 -15 -2 -2 9 -18 24 -35 20 -24 26 -40 22 -62 -3 -20 2 -36
15 -49 26 -26 23 -63 -8 -87 -22 -17 -24 -23 -14 -42 25 -46 -34 -108 -84 -89
-36 13 -34 14 -44 -22 -8 -31 -11 -33 -56 -36 -54 -4 -76 9 -76 44 0 24 -23
33 -35 14 -12 -19 -47 -10 -76 19 -33 33 -37 65 -11 80 18 10 17 11 -35 27
-19 5 -17 100 1 107 10 4 13 16 10 36 -4 25 1 36 28 61 l33 30 -30 -7 c-16 -4
-38 -7 -47 -7 -10 0 -18 -4 -18 -9 0 -4 -4 -5 -10 -2 -5 3 -10 19 -10 35 0 28
-1 28 -32 19 -18 -5 -46 -9 -62 -9 l-29 0 27 -21 c14 -11 26 -26 26 -33 0 -24
-35 -45 -75 -44 -22 0 -44 -1 -50 -3 -5 -2 -20 1 -33 5 -32 11 -24 36 21 65
70 46 34 73 -61 46 -67 -19 -315 -106 -322 -112 -3 -3 10 -3 29 -1 43 4 53
-18 15 -32 -34 -13 -68 -4 -60 17 4 10 2 14 -6 11 -7 -3 -105 -35 -219 -71
l-205 -66 4 -35 c4 -31 0 -37 -22 -48 -36 -16 -80 0 -84 30 -4 26 -15 25 -137
-20 -44 -16 -108 -39 -142 -50 -54 -17 -63 -23 -63 -44 0 -29 -16 -32 -25 -5
-6 19 -8 19 -53 4 -26 -9 -53 -23 -59 -31 -22 -27 -16 -92 13 -133 31 -45 28
-78 -8 -99 -25 -13 -31 -13 -55 0 -36 20 -42 64 -15 94 26 28 35 61 28 101
l-7 34 -67 -24 c-37 -12 -79 -28 -94 -35 l-28 -13 0 -236 1 -236 28 -32 27
-33 115 111 c270 261 403 364 599 461 117 58 198 84 315 103 416 68 836 -102
1057 -428 35 -52 85 -149 102 -200 5 -16 8 -17 36 -2 22 11 35 13 49 5 27 -14
50 -3 57 29 4 14 14 34 22 44 15 16 12 21 -36 67 -55 52 -62 67 -37 76 26 10
16 21 -15 16 -39 -6 -90 43 -90 85 0 41 50 96 117 128 47 23 76 29 149 33 102
5 154 -7 194 -44 35 -32 77 -46 100 -34 26 14 108 12 152 -4 20 -7 60 -32 88
-56 l50 -42 50 12 c37 9 62 9 100 1 28 -6 53 -11 54 -11 2 0 4 295 5 655 1
529 -1 655 -11 654 -7 -1 -62 -19 -123 -41z m-437 -904 c7 -8 9 -12 5 -9 -10
8 -43 -26 -37 -37 4 -6 -3 -5 -14 1 -12 6 -25 11 -29 10 -42 -7 -56 16 -27 46
19 18 81 12 102 -11z m-2098 -63 c0 -13 -27 -21 -73 -21 -65 0 -110 -17 -147
-55 -37 -38 -50 -43 -50 -21 0 8 25 35 56 60 56 46 56 46 135 46 43 0 79 -4
79 -9z"/>
<path d="M1952 7100 c0 -134 4 -213 8 -185 4 28 8 44 8 37 2 -9 7 -10 20 -4 9
5 52 10 95 10 43 1 84 5 91 11 13 11 56 11 56 1 0 -6 36 -5 50 0 3 1 8 2 13 1
4 0 7 4 7 11 0 6 3 9 6 5 3 -3 26 6 50 19 25 14 50 22 56 18 7 -4 8 -3 4 4 -4
7 -2 12 4 12 6 0 8 5 5 10 -3 6 -3 16 2 23 14 21 9 71 -8 91 -17 17 -111 53
-356 135 l-113 37 2 -236z"/>
<path d="M7333 7250 c-6 -9 -8 -23 -3 -30 9 -15 1 -52 -14 -62 -6 -4 -4 -9 7
-14 29 -11 287 85 287 107 0 7 -7 8 -17 4 -10 -4 -27 -8 -37 -11 -11 -2 -24
-8 -29 -13 -14 -14 -117 -1 -153 19 -29 17 -31 17 -41 0z"/>
<path d="M7120 7095 c-36 -13 -48 -44 -21 -53 9 -3 11 0 6 8 -5 8 -4 11 3 6
15 -9 94 24 89 38 -5 16 -36 16 -77 1z"/>
<path d="M7202 6950 c-62 -21 -74 -30 -63 -48 6 -10 14 -10 35 -2 15 5 38 10
51 10 26 0 55 24 55 46 0 18 -12 17 -78 -6z"/>
<path d="M6597 6932 c-26 -5 -75 -32 -59 -32 7 0 10 -4 7 -10 -3 -5 -17 -10
-31 -10 -14 0 -27 -7 -30 -15 -8 -19 -21 -19 -39 -2 -16 16 -220 15 -271 -1
-17 -5 -37 -6 -46 -1 -10 6 -25 1 -47 -15 -17 -13 -51 -31 -75 -40 -33 -13
-46 -24 -51 -44 -8 -31 -43 -72 -62 -72 -7 0 -22 6 -33 12 -16 10 -25 9 -51
-6 l-31 -18 17 26 c19 28 14 56 -8 56 -25 0 -40 -29 -39 -73 2 -41 0 -44 -103
-137 -62 -56 -99 -96 -90 -98 14 -3 165 49 265 92 30 13 96 37 145 54 153 52
302 110 414 162 59 28 111 50 115 50 3 0 43 14 88 31 59 23 77 34 67 41 -11 7
-9 8 5 4 10 -4 34 -2 52 4 27 9 31 14 21 25 -6 7 -15 11 -18 9 -4 -2 -26 0
-50 4 -24 4 -52 6 -62 4z"/>
<path d="M5028 6861 c-3 -9 -40 -19 -110 -28 -21 -3 -38 -8 -38 -11 0 -3 23
-32 51 -64 45 -52 50 -63 45 -91 -25 -123 -33 -266 -16 -298 6 -10 19 -19 28
-19 10 0 34 -11 54 -25 42 -28 68 -32 68 -10 0 10 11 15 35 15 36 0 158 41
182 62 11 9 13 33 9 107 -3 53 -5 117 -6 142 l0 45 -56 18 c-43 14 -69 31
-113 75 -31 32 -66 61 -79 65 -12 4 -22 12 -22 17 0 12 -27 12 -32 0z"/>
<path d="M7300 6855 c-7 -9 -10 -18 -6 -22 9 -10 59 10 64 25 6 18 -43 15 -58
-3z"/>
<path d="M5379 6739 c0 -19 -4 -101 -10 -183 -7 -101 -7 -152 -1 -158 23 -23
95 23 219 140 125 116 125 117 120 156 -3 21 -9 42 -14 46 -4 5 -37 11 -73 13
-36 3 -105 9 -153 13 l-88 7 0 -34z"/>
<path d="M7110 6681 c0 -6 5 -13 10 -16 30 -19 -4 -75 -46 -75 -13 0 -24 -4
-24 -10 0 -5 9 -10 19 -10 22 0 61 -44 61 -69 0 -10 -5 -22 -12 -29 -13 -13
-6 -15 42 -13 29 1 64 -26 75 -58 9 -28 39 -24 43 7 5 33 45 56 85 48 41 -8
54 2 27 21 -11 8 -20 23 -20 33 0 20 44 60 67 60 8 0 11 5 8 10 -3 6 -15 10
-26 10 -26 0 -47 45 -32 70 11 16 7 18 -40 23 -29 3 -54 3 -57 0 -2 -2 8 -14
23 -26 49 -40 53 -102 9 -152 -20 -23 -29 -26 -75 -23 -46 3 -54 7 -75 38 -27
40 -26 98 3 131 17 18 16 19 -9 29 -34 13 -56 13 -56 1z"/>
<path d="M1951 6498 c0 -98 3 -178 8 -178 5 0 15 7 22 17 19 23 72 43 112 43
30 0 35 4 58 54 l26 54 -27 16 c-15 8 -30 13 -34 9 -3 -3 -6 -2 -6 3 0 5 -9
10 -19 10 -11 0 -17 -4 -15 -8 3 -4 0 -8 -5 -8 -15 0 -14 23 2 39 10 10 9 11
-3 7 -17 -6 -47 14 -52 34 -5 24 -30 48 -44 43 -7 -3 -14 5 -17 19 -2 13 -5
-57 -6 -154z"/>
<path d="M4771 6637 c-45 -12 -78 -45 -53 -54 8 -3 12 -27 12 -69 l0 -65 73
-33 c96 -44 123 -50 131 -30 12 31 6 220 -7 238 -16 22 -96 29 -156 13z"/>
<path d="M7222 6607 c-25 -26 -28 -46 -9 -69 21 -28 54 -31 76 -9 26 26 27 55
1 81 -26 26 -42 25 -68 -3z"/>
<path d="M4607 6532 c-16 -2 -27 -8 -24 -15 4 -14 108 -68 117 -62 10 6 -1 64
-13 72 -13 8 -40 9 -80 5z"/>
<path d="M5887 6523 c-13 -12 -7 -44 8 -49 20 -8 45 13 45 37 0 13 -7 19 -23
19 -13 0 -27 -3 -30 -7z"/>
<path d="M4495 6440 c-3 -11 -15 -20 -25 -20 -10 0 -21 -4 -25 -10 -4 -6 -15
-5 -30 2 -13 6 -22 14 -20 18 2 4 -11 6 -30 4 -19 -1 -38 2 -41 7 -3 6 -30 9
-60 8 -43 -2 -54 -6 -52 -18 2 -11 36 -25 108 -46 201 -57 419 -201 676 -448
52 -49 96 -88 98 -86 2 2 6 97 10 212 l7 207 -23 9 c-134 51 -538 181 -565
181 -13 0 -24 -8 -28 -20z"/>
<path d="M3793 6319 c-96 -16 -252 -66 -320 -102 -24 -12 -37 -31 -53 -74 -36
-97 -36 -110 -4 -145 l29 -32 -39 23 -39 22 6 -138 c3 -76 9 -148 13 -161 10
-36 43 -24 84 30 20 27 55 60 78 75 23 15 42 33 42 40 0 7 8 13 18 13 10 0 50
15 88 34 50 25 94 38 159 47 336 44 674 -131 929 -481 15 -21 -45 29 -160 134
-170 153 -344 253 -519 296 -159 40 -343 15 -478 -64 -56 -33 -158 -139 -186
-193 -89 -175 -57 -428 74 -580 l36 -42 115 5 c88 4 115 2 112 -7 -3 -8 -33
-11 -101 -10 -57 1 -97 -2 -97 -8 0 -14 57 -59 111 -86 121 -62 302 -82 450
-51 86 19 202 67 279 117 33 21 63 39 66 39 3 0 54 -34 114 -76 l110 -76 -1
-101 c-1 -56 -4 -113 -8 -127 -8 -30 -68 -71 -213 -145 -361 -186 -700 -185
-1071 1 -39 20 -83 45 -96 55 -29 23 -58 25 -58 4 0 -8 7 -15 15 -15 11 0 9
-5 -7 -19 l-22 -19 25 -18 c13 -11 38 -27 55 -36 28 -15 31 -22 31 -66 0 -27
2 -51 5 -54 3 -3 26 -1 50 5 58 13 109 -2 158 -47 32 -29 48 -36 104 -42 53
-5 71 -3 94 10 l29 17 0 -32 c0 -26 -2 -29 -14 -20 -10 8 -16 9 -21 1 -10 -16
4 -30 22 -23 10 4 14 2 10 -4 -4 -6 7 -25 24 -41 26 -25 28 -30 11 -25 -11 2
-30 14 -41 24 -24 23 -22 29 -25 -76 -5 -121 -6 -138 -13 -132 -3 4 -10 55
-14 113 -4 59 -12 111 -18 117 -8 8 -11 7 -11 -3 0 -8 -10 -29 -22 -47 -17
-24 -31 -33 -50 -33 -24 0 -28 -4 -28 -29 0 -58 -19 -90 -61 -101 -25 -7 -36
-15 -33 -24 3 -7 -5 -31 -18 -52 -13 -21 -23 -48 -23 -60 -1 -26 -27 -54 -52
-54 -15 0 -16 -2 -3 -10 13 -8 12 -10 -2 -10 -10 0 -18 7 -18 16 0 11 -6 14
-20 10 -70 -20 -66 -17 -39 -32 13 -7 33 -13 44 -14 20 0 55 -45 55 -70 0 -7
-8 -18 -17 -25 -13 -10 -15 -16 -6 -27 7 -8 8 -19 3 -28 -6 -10 -3 -18 11 -28
10 -7 19 -24 19 -37 0 -13 5 -27 10 -30 6 -3 10 -15 10 -26 0 -38 58 -14 124
53 50 51 142 102 201 112 17 2 44 9 60 14 17 5 69 8 117 7 92 -2 109 6 83 41
-22 31 -8 46 26 28 22 -11 29 -22 29 -44 0 -16 -5 -32 -11 -35 -6 -5 1 -18 20
-37 16 -16 33 -38 36 -49 8 -23 33 -23 100 0 49 17 50 19 55 64 6 51 27 79 70
97 25 10 34 9 64 -10 20 -12 46 -35 59 -52 l24 -30 55 45 c83 67 117 82 102
44 -3 -9 -11 -14 -18 -11 -12 4 -146 -100 -146 -114 0 -4 40 -48 90 -99 55
-57 90 -101 93 -117 4 -35 9 -38 57 -30 56 9 70 41 29 66 -61 37 -62 85 -1
142 28 27 49 37 85 42 27 4 54 12 60 18 17 17 88 36 131 36 35 0 36 1 37 38 6
314 15 1309 11 1316 -2 4 -76 -63 -162 -149 -116 -115 -163 -156 -175 -152
-14 6 -15 20 -9 117 4 67 3 110 -3 110 -14 0 -204 107 -222 125 -14 14 13 43
278 302 l293 287 -5 45 c-5 43 -12 52 -108 144 -114 108 -282 237 -399 309
-143 85 -340 164 -474 187 -70 13 -258 12 -333 0z m777 -738 c15 -29 12 -41
-8 -41 -23 0 -56 35 -47 49 10 18 44 12 55 -8z m-662 -90 c10 -6 10 -10 -1
-20 -14 -11 -47 -6 -47 8 0 20 26 27 48 12z m-157 -72 c9 -17 8 -23 -2 -30
-19 -12 -25 -11 -39 6 -10 12 -10 18 0 30 17 20 27 19 41 -6z m499 -21 c0 -4
-7 -8 -15 -8 -8 0 -15 4 -15 8 0 5 7 9 15 9 8 0 15 -4 15 -9z m-647 -62 c9
-22 -19 -42 -37 -26 -19 15 -10 40 14 40 10 0 20 -6 23 -14z m543 -133 c-10
-10 -19 5 -10 18 6 11 8 11 12 0 2 -7 1 -15 -2 -18z m132 4 c3 -12 -3 -17 -22
-17 -25 0 -35 18 -19 34 12 12 38 2 41 -17z m-62 -146 c-11 -18 -36 -13 -36 7
0 10 3 22 7 26 10 10 37 -20 29 -33z m749 -442 c10 -15 -1 -23 -20 -15 -9 3
-13 10 -10 16 8 13 22 13 30 -1z m-128 -101 c-3 -7 -5 -2 -5 12 0 14 2 19 5
13 2 -7 2 -19 0 -25z m-489 -244 c51 -35 5 -122 -51 -97 -17 8 -30 7 -48 -3
-39 -21 -45 -16 -16 14 15 15 27 38 27 49 0 21 33 53 55 53 6 0 21 -7 33 -16z
m-154 -141 c9 -32 0 -243 -11 -254 -6 -6 -65 -13 -130 -16 -113 -5 -121 -5
-142 16 -19 19 -21 32 -21 126 0 145 -1 145 169 145 115 0 130 -2 135 -17z
m250 -31 c-21 -21 -41 -34 -43 -29 -2 5 3 13 11 18 8 5 26 17 39 28 39 33 36
24 -7 -17z m151 -253 c19 -36 16 -42 -17 -34 -20 5 -24 11 -20 36 5 37 17 37
37 -2z m45 16 c-7 -8 -18 -15 -24 -15 -6 0 -2 7 8 15 25 19 32 19 16 0z m-858
-42 c29 -26 18 -83 -16 -83 -5 0 -2 6 8 13 11 8 17 23 14 38 -2 19 -9 24 -33
24 -24 0 -31 -5 -33 -24 -3 -15 3 -30 14 -38 25 -18 12 -26 -14 -7 -28 20 -28
58 0 78 28 20 37 20 60 -1z m-288 -174 c-3 -5 -10 -7 -15 -3 -5 3 -7 10 -3 15
3 5 10 7 15 3 5 -3 7 -10 3 -15z m1212 -96 c-26 -15 -27 -15 -45 -4 -11 7 -11
14 -1 37 l13 29 27 -25 28 -25 -22 -12z"/>
<path d="M4291 4246 c-9 -11 -8 -18 4 -30 20 -20 29 -20 45 -1 10 12 10 18 0
30 -16 19 -34 19 -49 1z"/>
<path d="M4083 4113 l-31 -4 39 -40 c69 -70 46 -149 -44 -149 -34 0 -49 6 -69
28 -43 46 -42 57 11 112 l49 50 -54 0 -54 0 0 -105 0 -105 120 0 120 0 0 110
0 110 -27 -2 c-16 0 -42 -3 -60 -5z"/>
<path d="M4000 3981 c0 -5 7 -15 17 -22 15 -13 15 -12 4 9 -12 23 -21 28 -21
13z"/>
<path d="M6229 6306 c-101 -23 -167 -48 -180 -69 -4 -5 -10 -35 -13 -67 -8
-71 -9 -72 -125 -79 -8 -1 -12 -4 -8 -7 10 -10 -16 -30 -48 -38 -101 -24 -102
-25 -118 -65 -14 -35 -20 -39 -49 -38 l-33 2 -3 -56 -3 -57 48 -38 c26 -21 65
-54 86 -73 l37 -35 -161 -162 -162 -162 30 -15 c16 -9 42 -32 58 -53 39 -51
182 -202 228 -241 32 -27 48 -33 90 -35 44 -1 46 -2 15 -5 -21 -2 -38 -7 -38
-11 0 -4 30 -28 67 -52 89 -58 206 -97 330 -110 312 -32 555 108 643 370 26
76 30 204 10 290 -18 80 -77 186 -135 245 -113 114 -225 163 -395 172 -158 8
-297 -30 -455 -127 -37 -23 -69 -39 -71 -37 -11 11 78 74 161 114 215 104 475
110 659 16 l37 -19 57 56 c31 31 72 67 91 81 l34 25 -17 70 c-9 38 -22 82 -28
97 -24 62 -224 125 -418 132 -94 3 -134 0 -221 -19z m-9 -720 c0 -9 -30 -14
-35 -6 -4 6 3 10 14 10 12 0 21 -2 21 -4z m0 -106 c0 -14 -17 -21 -34 -14 -12
5 -14 10 -6 20 12 13 40 9 40 -6z m278 -74 c17 -16 32 -34 32 -38 0 -19 -20
-5 -61 45 -43 52 -33 50 29 -7z m207 -16 c-21 -22 -41 -37 -44 -35 -6 7 60 75
73 75 6 0 -7 -18 -29 -40z m-71 -73 c9 -15 7 -22 -13 -38 -29 -24 -36 -24 -61
1 -17 17 -18 24 -10 41 14 25 68 23 84 -4z m-599 -117 c-5 -8 -11 -8 -17 -2
-6 6 -7 16 -3 22 5 8 11 8 17 2 6 -6 7 -16 3 -22z m-87 -93 c2 -12 -3 -17 -17
-17 -12 0 -21 6 -21 13 0 31 32 34 38 4z m560 -49 c-3 -7 -11 -13 -18 -13 -7
0 -15 6 -17 13 -3 7 4 12 17 12 13 0 20 -5 18 -12z"/>
<path d="M6917 6134 c13 -54 23 -103 21 -110 -4 -15 -176 -174 -189 -174 -17
0 -9 -19 11 -25 11 -4 48 -34 82 -68 48 -49 72 -86 114 -172 52 -109 91 -165
112 -165 7 0 14 -11 18 -24 8 -33 27 -38 101 -30 45 4 70 13 90 30 29 25 58
31 68 14 3 -5 11 -10 17 -10 8 0 9 38 6 124 -5 115 -9 130 -43 212 -47 109
-104 200 -176 278 -73 80 -150 141 -159 125 -5 -7 -13 2 -20 23 -11 29 -52 68
-72 68 -3 0 6 -43 19 -96z"/>
<path d="M3322 6068 c-17 -17 -15 -39 6 -79 l17 -34 3 54 c3 57 -6 79 -26 59z"/>
<path d="M1945 5805 c-8 -78 -1 -145 15 -145 5 0 17 11 26 25 9 14 25 25 35
25 25 0 24 7 -12 60 -17 25 -33 57 -36 73 -10 52 -21 37 -28 -38z"/>
<path d="M8398 5836 c-3 -28 -2 -59 2 -70 14 -38 24 9 13 67 l-9 52 -6 -49z"/>
<path d="M5312 5698 c-7 -7 -12 -9 -12 -4 0 10 -46 -24 -108 -79 l-52 -47 0
-216 c0 -120 4 -223 9 -231 7 -11 15 -12 30 -5 32 14 180 162 208 208 14 23
56 75 93 116 63 71 79 110 45 110 -15 0 -45 54 -45 81 0 10 -9 21 -20 24 -11
3 -20 14 -20 23 0 13 -2 13 -15 -4 -14 -18 -14 -18 -9 3 5 19 3 21 -29 16 -19
-2 -38 0 -42 6 -8 14 -18 14 -33 -1z"/>
<path d="M5133 5685 c-8 -22 6 -33 17 -15 13 20 12 30 0 30 -6 0 -13 -7 -17
-15z"/>
<path d="M7410 5698 c1 -1 7 -25 15 -53 l14 -50 -3 50 c-2 27 -9 51 -15 53 -6
2 -11 2 -11 0z"/>
<path d="M7443 5455 l2 -120 25 3 c13 1 27 7 31 13 4 8 8 7 11 -2 3 -8 6 19 7
59 1 48 -2 71 -9 67 -5 -3 -10 2 -10 12 0 10 -14 34 -30 53 l-30 35 3 -120z"/>
<path d="M8406 5508 c-5 -21 -5 -46 0 -55 6 -15 8 -13 12 10 2 15 2 39 0 55
-4 25 -5 24 -12 -10z"/>
<path d="M4978 5414 c-57 -58 -108 -115 -115 -127 -7 -12 -12 -44 -13 -70 0
-45 3 -52 53 -100 63 -62 110 -97 132 -97 9 0 27 7 40 16 l25 16 0 234 c0 145
-4 234 -10 234 -5 0 -56 -48 -112 -106z"/>
<path d="M8391 5416 c-10 -12 -15 -39 -20 -98 -1 -6 -43 -23 -49 -19 -2 1 -18
-11 -37 -27 -39 -35 -119 -67 -193 -77 -41 -5 -57 -13 -69 -32 -14 -21 -14
-26 -2 -34 12 -8 12 -11 -1 -20 -11 -8 -12 -12 -2 -16 6 -2 12 -15 12 -28 0
-18 7 -24 33 -28 17 -4 47 -9 65 -13 18 -3 32 -2 31 2 -5 27 3 35 28 32 22 -2
28 -9 30 -30 1 -16 -2 -28 -7 -28 -5 0 3 -20 16 -45 24 -43 53 -63 74 -50 5 3
33 -5 62 -19 29 -14 53 -24 55 -22 2 2 5 509 4 554 -1 16 -16 15 -30 -2z"/>
<path d="M5419 5305 c-30 -27 -107 -101 -171 -164 l-118 -116 0 -687 c0 -377
3 -693 6 -702 3 -9 11 -16 17 -16 6 0 37 -18 68 -40 32 -22 61 -40 66 -40 4 0
14 9 21 20 7 11 17 20 23 20 27 0 74 55 86 99 19 71 17 77 -26 89 -23 7 -54
29 -76 53 -31 34 -36 46 -31 71 3 17 6 42 6 55 0 31 69 103 99 103 20 0 21 5
21 97 0 96 0 97 -32 123 -25 21 -30 31 -24 53 3 14 18 32 34 39 l27 13 -3 121
c-3 81 0 124 7 128 8 5 11 -31 11 -122 0 -116 2 -131 20 -147 11 -10 20 -31
20 -46 0 -18 -7 -32 -20 -39 -18 -10 -20 -21 -20 -113 l0 -102 30 -17 c46 -26
70 -74 70 -139 0 -47 -5 -62 -30 -94 -16 -21 -30 -39 -30 -40 0 -1 33 0 73 2
58 4 75 9 89 26 9 12 33 26 54 32 28 7 40 17 45 35 6 24 6 23 16 -10 l9 -35
85 -6 c71 -5 95 -11 153 -42 l69 -36 29 22 c15 12 44 36 63 53 26 23 49 33 86
38 41 6 63 17 107 52 30 25 69 52 86 61 46 24 87 69 80 88 -5 13 1 12 30 -6
l37 -22 27 33 c27 32 87 60 130 60 12 0 23 6 23 13 1 6 2 17 3 24 0 6 12 29
26 51 25 40 59 58 120 64 19 2 28 12 36 37 11 35 42 55 69 45 21 -9 47 15 40
37 -9 28 12 58 48 67 26 7 33 14 35 38 4 37 49 84 79 84 18 0 28 9 40 38 21
51 107 130 149 138 38 7 42 18 18 45 -9 10 -16 30 -16 44 0 28 43 81 74 91 26
8 22 18 -12 31 -26 10 -29 15 -29 55 1 23 -6 58 -14 77 l-14 34 -22 -68 c-47
-145 -131 -278 -250 -396 -48 -47 -99 -94 -114 -104 -26 -16 -30 -17 -44 -2
-14 14 -14 25 0 114 8 54 13 102 10 106 -12 19 -167 115 -179 110 -30 -11 -12
-42 56 -92 l70 -52 -6 -87 c-12 -160 -13 -164 -69 -194 -28 -15 -92 -41 -143
-58 -397 -132 -820 -38 -1199 266 -89 71 -240 230 -229 241 7 7 128 -71 152
-99 26 -29 134 -114 226 -178 77 -53 136 -70 146 -42 2 7 12 12 23 12 10 0 19
5 19 10 0 6 9 10 20 10 11 0 20 5 20 11 0 5 5 7 10 4 6 -3 10 2 10 12 0 15 2
16 10 3 8 -13 10 -13 10 2 0 10 9 22 20 28 11 6 20 17 20 25 0 8 5 15 11 15 5
0 8 4 5 8 -9 15 24 51 50 54 25 3 26 3 7 24 -10 12 -52 43 -93 69 -122 78
-205 151 -328 289 -65 72 -127 144 -138 160 l-21 29 -54 -48z m138 -887 c-2
-18 -4 -6 -4 27 0 33 2 48 4 33 2 -15 2 -42 0 -60z m0 -135 c-3 -10 -5 -2 -5
17 0 19 2 27 5 18 2 -10 2 -26 0 -35z m0 -60 c-3 -10 -5 -4 -5 12 0 17 2 24 5
18 2 -7 2 -21 0 -30z m793 9 c27 -22 21 -53 -15 -72 -20 -11 -27 -11 -40 0
-32 27 -37 48 -15 70 25 25 41 25 70 2z m-536 -27 c9 -14 34 -37 56 -51 48
-32 46 -45 -2 -16 -48 30 -106 92 -86 92 9 0 23 -11 32 -25z m-119 -136 c17
-18 -5 -3 -48 34 -43 37 -82 67 -87 67 -6 0 -10 7 -10 16 0 17 87 -53 145
-117z m543 -65 l-3 -109 -135 0 -135 0 -6 105 c-3 58 -4 107 -2 110 7 7 267
16 276 9 4 -3 6 -55 5 -115z m-338 -7 c0 -10 -77 -3 -87 7 -4 3 2 15 11 25 18
20 18 20 47 -1 16 -12 29 -26 29 -31z"/>
<path d="M6297 4224 c-12 -12 -8 -42 6 -47 21 -8 39 8 35 29 -3 19 -29 30 -41
18z"/>
<path d="M5987 4084 c-13 -13 -8 -164 6 -165 6 -1 58 -3 115 -4 119 -2 115 -5
110 105 l-3 65 -110 3 c-61 2 -114 0 -118 -4z m92 -72 c18 11 23 10 35 -7 9
-11 16 -15 16 -10 1 21 17 35 33 29 23 -8 21 -23 -5 -51 -25 -26 -48 -30 -48
-8 0 10 -9 15 -27 14 -25 0 -26 -1 -8 -9 18 -7 18 -9 3 -15 -42 -17 -71 17
-53 63 6 16 8 16 20 -1 11 -16 16 -16 34 -5z"/>
<path d="M7109 5281 c-23 -19 -23 -21 -9 -48 21 -37 59 -38 79 -1 14 24 14 28
-3 47 -24 26 -37 26 -67 2z"/>
<path d="M1804 5184 c-4 -14 -4 -245 0 -512 6 -418 8 -519 15 -564 1 -5 24 -8
51 -8 l51 0 -1 43 c-2 68 12 752 15 755 1 2 5 -221 9 -495 3 -274 8 -592 11
-708 2 -115 5 -241 5 -279 l0 -69 56 7 c62 7 572 172 670 216 33 15 78 30 100
34 21 4 74 18 116 32 43 14 86 24 95 22 10 -2 -21 -16 -69 -31 -48 -15 -91
-34 -96 -43 -5 -9 -24 -17 -44 -19 -39 -4 -227 -66 -398 -132 -63 -24 -170
-64 -238 -90 -68 -25 -120 -49 -115 -53 4 -4 46 -21 93 -39 47 -18 117 -48
155 -66 130 -63 611 -255 638 -255 7 0 18 14 24 31 7 17 17 28 22 24 6 -3 11
-2 11 4 0 5 10 11 23 13 18 2 22 9 19 33 -8 97 -19 152 -33 171 -11 13 51 100
65 92 2 -2 8 1 13 6 5 5 -6 6 -25 3 -24 -5 -34 -3 -39 8 -4 12 -9 13 -18 5 -9
-8 -15 -8 -20 0 -3 6 -10 8 -15 5 -5 -3 -17 9 -26 26 l-16 32 27 -5 c15 -3 32
0 39 8 15 14 10 64 -6 64 -5 0 -8 16 -7 35 2 19 -2 40 -9 47 -19 19 -14 52 11
76 18 17 30 20 62 15 48 -7 103 -47 111 -79 4 -16 13 -24 28 -24 13 0 33 -11
46 -25 13 -14 32 -25 42 -25 25 0 31 -20 18 -55 -14 -36 -1 -50 34 -34 19 9
35 9 60 2 32 -10 37 -8 62 18 15 16 26 29 23 30 -55 9 -116 32 -101 36 19 7
15 53 -5 54 -36 1 -51 7 -72 28 -12 12 -25 21 -30 21 -5 0 -12 9 -16 19 -3 11
-22 25 -41 31 -27 9 -36 19 -41 41 -4 23 -11 29 -32 29 -23 0 -21 3 19 26 25
14 49 32 53 40 7 11 19 13 52 8 35 -5 55 -1 100 20 l56 26 -25 33 c-27 35 -33
62 -16 72 6 3 10 15 10 25 0 18 -2 18 -35 4 -38 -15 -190 -20 -199 -5 -3 4
-24 11 -46 15 -31 5 -43 13 -55 37 -9 17 -22 28 -29 26 -7 -3 -25 8 -41 24
-34 37 -50 33 -50 -11 0 -32 -2 -34 -55 -47 -30 -8 -76 -18 -102 -22 -25 -4
-54 -13 -63 -21 -13 -11 -23 -11 -58 0 -23 8 -51 21 -62 30 -11 9 -28 20 -38
23 -9 4 -27 23 -38 42 -14 23 -28 35 -39 33 -9 -2 -29 3 -43 11 -34 18 -35 47
-3 109 17 34 21 53 15 70 -14 37 -1 55 34 48 17 -4 35 -12 39 -19 6 -9 8 -8 8
3 0 32 -50 70 -91 70 -32 0 -105 51 -114 80 -4 12 -18 25 -31 30 -13 5 -24 13
-24 18 0 13 31 47 55 59 14 8 19 22 20 53 1 37 -3 45 -34 68 -20 15 -38 30
-41 33 -3 3 -17 9 -32 13 -36 8 -35 27 2 48 17 9 30 24 30 32 0 15 -37 56 -50
56 -4 0 -12 12 -19 26 -6 15 -14 24 -18 21 -3 -4 -19 1 -35 9 -22 11 -27 20
-23 34 7 22 -30 61 -85 88 -19 9 -40 28 -46 41 -11 20 -13 12 -20 -65 l-8 -89
-11 75 c-12 82 -51 180 -72 180 -7 0 -13 9 -13 20 0 29 -28 25 -36 -6z m1060
-1640 c3 -8 2 -12 -4 -9 -6 3 -10 10 -10 16 0 14 7 11 14 -7z"/>
<path d="M8470 4945 c0 -64 1 -68 16 -53 12 12 15 24 9 45 -4 15 -9 36 -10 45
-1 10 -5 21 -8 25 -4 3 -7 -25 -7 -62z"/>
<path d="M3550 4917 c-19 -10 -30 -31 -51 -106 -15 -51 -32 -98 -37 -103 -6
-6 -60 -17 -120 -26 -103 -14 -109 -16 -104 -36 3 -12 12 -31 20 -44 14 -22
15 -22 28 -3 14 19 59 32 162 49 l43 7 45 134 c25 73 43 135 42 137 -2 2 -15
-2 -28 -9z"/>
<path d="M8190 4710 c0 -16 61 -80 76 -80 28 0 27 31 -2 61 -26 27 -74 40 -74
19z"/>
<path d="M8170 4450 c0 -13 -10 -24 -27 -31 -15 -5 -33 -19 -40 -29 -8 -11
-23 -20 -33 -20 -10 0 -22 -4 -25 -10 -3 -5 -22 -10 -42 -10 -20 0 -45 -8 -55
-17 -11 -9 -24 -18 -31 -19 -141 -22 -164 -30 -214 -79 -38 -37 -53 -45 -98
-50 -29 -4 -58 -4 -64 0 -7 3 -11 -2 -11 -14 0 -11 -4 -22 -8 -25 -5 -3 -9
-19 -10 -35 -1 -40 -27 -78 -74 -107 -45 -29 -58 -53 -35 -65 9 -5 23 -16 31
-24 8 -8 28 -15 44 -15 33 0 72 -36 72 -66 0 -12 -22 -41 -49 -66 l-49 -46 30
-13 c16 -6 54 -11 83 -10 51 1 55 0 69 -28 9 -16 21 -31 28 -34 7 -2 -8 -4
-34 -3 -27 0 -48 3 -48 6 0 3 -9 6 -20 6 -10 0 -17 -2 -15 -5 3 -2 -5 -12 -16
-22 -17 -14 -25 -16 -45 -7 -25 11 -53 -2 -55 -26 0 -6 -14 -22 -31 -35 -22
-18 -32 -21 -38 -12 -12 20 -18 18 -42 -15 -29 -38 -92 -94 -107 -94 -6 0 -11
-4 -11 -10 0 -5 -6 -10 -14 -10 -8 0 -16 -6 -19 -14 -6 -15 4 -34 51 -100 40
-55 34 -70 -41 -109 -39 -20 -55 -23 -69 -16 -36 19 -57 18 -63 -2 -4 -10 -4
-23 -1 -27 3 -5 -1 -20 -9 -35 -15 -30 -15 -30 33 -27 69 4 130 -11 161 -39
17 -15 28 -31 24 -34 -3 -4 -1 -7 6 -7 7 0 11 -8 9 -17 -1 -10 5 -29 15 -43 9
-13 17 -30 17 -37 0 -17 103 22 670 255 107 44 224 92 260 107 124 50 141 58
137 69 -3 10 -165 84 -327 150 -80 32 -88 47 -11 21 44 -14 123 -18 112 -5 -2
3 2 16 9 30 8 14 13 30 12 36 -1 6 10 17 25 23 34 15 73 73 73 108 0 15 14 41
35 64 19 21 37 51 41 66 3 16 24 44 46 64 l40 36 5 175 c3 97 3 188 -1 202 -5
19 -18 31 -46 42 -22 9 -40 20 -40 25 0 5 -12 15 -27 21 -16 7 -48 27 -72 45
-50 38 -71 42 -71 13z m-460 -256 c0 -3 -4 -13 -9 -22 -8 -15 -4 -17 27 -16
46 2 62 -4 62 -22 0 -10 -15 -13 -59 -12 -56 1 -59 3 -59 27 0 27 14 51 29 51
5 0 9 -3 9 -6z m-396 -760 c18 -7 22 -44 5 -44 -5 0 -8 4 -5 9 4 5 -2 7 -11 5
-10 -2 -25 0 -33 6 -13 9 -13 11 0 20 18 11 23 12 44 4z m137 -84 c10 -6 19
-15 19 -20 0 -15 -46 -41 -82 -47 -18 -2 -40 -11 -48 -18 -19 -17 -50 -2 -50
25 0 22 10 30 70 51 56 21 67 22 91 9z"/>
<path d="M5397 4338 c-9 -5 -17 -20 -17 -33 0 -20 5 -25 24 -25 28 0 49 22 40
43 -8 21 -27 27 -47 15z"/>
<path d="M8460 4190 c0 -66 4 -120 8 -120 4 0 27 20 51 44 47 48 50 71 14 113
-10 12 -26 35 -35 52 -31 55 -38 38 -38 -89z"/>
<path d="M5370 4017 c-35 -18 -31 -33 13 -56 36 -18 40 -19 68 -3 34 20 35 24
12 45 -26 23 -65 29 -93 14z"/>
<path d="M5325 3868 c24 -81 100 -103 156 -47 44 44 11 66 -99 68 -61 1 -63 0
-57 -21z"/>
<path d="M7324 3763 c-4 -10 -6 -24 -5 -30 1 -7 -3 -21 -8 -32 -12 -22 3 -39
40 -46 13 -3 29 -12 35 -20 15 -20 31 -19 38 3 3 9 16 22 28 27 37 16 17 30
-39 27 -57 -3 -60 0 -54 66 2 26 -23 30 -35 5z"/>
<path d="M4368 3683 c-19 -5 -43 -66 -34 -88 3 -9 18 -15 38 -14 29 0 30 1 12
9 -28 11 -40 30 -20 30 9 0 16 5 16 10 0 17 37 11 46 -7 4 -10 6 -22 5 -26 0
-4 11 -6 26 -4 22 3 29 10 31 31 2 16 -1 26 -6 22 -5 -3 -19 6 -30 19 -21 24
-44 29 -84 18z"/>
<path d="M8205 3208 c-27 -11 -117 -46 -200 -78 -374 -145 -590 -238 -593
-254 -2 -11 4 -16 20 -17 58 -1 105 -11 128 -26 14 -10 34 -18 45 -19 27 -3
319 107 542 204 217 95 240 112 192 145 -18 13 -25 28 -28 60 -2 13 -56 6
-106 -15z"/>
<path d="M2100 3179 c7 -23 5 -37 -6 -54 -8 -12 -12 -29 -8 -38 5 -15 253
-133 290 -138 11 -1 58 1 105 5 53 5 106 4 140 -3 30 -5 70 -12 90 -15 20 -3
44 -8 55 -11 26 -8 -99 55 -166 84 -263 112 -485 200 -502 201 -4 0 -3 -14 2
-31z"/>
<path d="M7125 2851 c-6 -6 -22 -12 -36 -15 -15 -2 -40 -11 -55 -18 -16 -8
-36 -13 -45 -11 -15 4 -67 -53 -58 -62 2 -2 47 15 99 37 52 21 105 43 118 49
13 5 20 14 17 19 -8 13 -28 13 -40 1z"/>
</g>
</svg>
